<svg width="19" height="20" viewBox="0 0 19 20" fill="none" xmlns="http://www.w3.org/2000/svg">
<path d="M17.9373 8.84111C17.7721 8.70914 17.5792 8.61608 17.3731 8.56884C17.167 8.5216 16.9529 8.52139 16.7466 8.56823C16.438 8.63795 16.1176 8.63775 15.809 8.56765C15.5004 8.49755 15.2113 8.35933 14.9631 8.16309C14.7148 7.96686 14.5135 7.71759 14.374 7.43352C14.2345 7.14946 14.1603 6.83779 14.1569 6.52135C14.1552 6.14947 14.0067 5.79331 13.7438 5.53034C13.4808 5.26737 13.1247 5.11886 12.7528 5.11714C12.4363 5.11369 12.1246 5.0395 11.8406 4.90002C11.5565 4.76053 11.3072 4.55928 11.111 4.31099C10.9147 4.0627 10.7765 3.77367 10.7064 3.46505C10.6363 3.15644 10.6361 2.83605 10.7059 2.52736C10.7522 2.32065 10.7515 2.10618 10.704 1.89975C10.6564 1.69332 10.5632 1.50018 10.4311 1.33457C10.299 1.16895 10.1315 1.03506 9.94079 0.942774C9.75011 0.850483 9.54117 0.802136 9.32933 0.801293C9.31011 0.801205 9.29128 0.801121 9.2721 0.801121C7.45032 0.801447 5.66966 1.34268 4.15584 2.35621C2.64203 3.36975 1.46323 4.80993 0.768887 6.49421C0.0745443 8.17848 -0.104077 10.031 0.255668 11.8169C0.615412 13.6028 1.49732 15.2417 2.7896 16.5258C4.08187 17.8099 5.72632 18.6814 7.51448 19.0298C9.30264 19.3782 11.154 19.1878 12.8338 18.4828C14.5136 17.7778 15.9463 16.5898 16.9502 15.0696C17.9541 13.5494 18.484 11.7653 18.4728 9.94359V9.9435C18.472 9.73134 18.4235 9.52207 18.3308 9.33123C18.2381 9.14039 18.1036 8.97287 17.9373 8.84111ZM4.63151 7.48035C4.77995 7.3319 4.96909 7.23081 5.17499 7.18985C5.38089 7.1489 5.59432 7.16992 5.78827 7.25026C5.98223 7.3306 6.14801 7.46665 6.26464 7.6412C6.38128 7.81576 6.44353 8.02098 6.44353 8.23092C6.44353 8.44085 6.38128 8.64607 6.26464 8.82063C6.14801 8.99519 5.98223 9.13123 5.78827 9.21157C5.59432 9.29191 5.38089 9.31293 5.17499 9.27198C4.96909 9.23102 4.77995 9.12993 4.63151 8.98148C4.43246 8.78241 4.32063 8.51243 4.32063 8.23092C4.32063 7.9494 4.43246 7.67942 4.63151 7.48035V7.48035ZM6.84027 13.9349C6.69182 14.0834 6.50269 14.1844 6.29678 14.2254C6.09088 14.2664 5.87746 14.2453 5.6835 14.165C5.48955 14.0847 5.32377 13.9486 5.20713 13.7741C5.0905 13.5995 5.02825 13.3943 5.02825 13.1843C5.02825 12.9744 5.0905 12.7692 5.20713 12.5946C5.32377 12.4201 5.48955 12.284 5.6835 12.2037C5.87746 12.1233 6.09088 12.1023 6.29678 12.1433C6.50269 12.1842 6.69182 12.2853 6.84027 12.4338C7.03932 12.6328 7.15114 12.9028 7.15114 13.1843C7.15114 13.4659 7.03932 13.7358 6.84027 13.9349V13.9349ZM9.23112 10.3967C9.08267 10.2483 8.98158 10.0592 8.94062 9.85326C8.89966 9.64736 8.92068 9.43393 9.00102 9.23998C9.08136 9.04602 9.21741 8.88025 9.39197 8.76361C9.56652 8.64698 9.77175 8.58472 9.98168 8.58472C10.1916 8.58472 10.3968 8.64698 10.5714 8.76361C10.746 8.88025 10.882 9.04602 10.9623 9.23998C11.0427 9.43393 11.0637 9.64736 11.0227 9.85326C10.9818 10.0592 10.8807 10.2483 10.7322 10.3967C10.5332 10.5958 10.2632 10.7076 9.98168 10.7076C9.70017 10.7076 9.43018 10.5958 9.23112 10.3967V10.3967ZM12.5013 14.6425C12.3529 14.791 12.1637 14.8921 11.9578 14.933C11.7519 14.974 11.5385 14.953 11.3446 14.8726C11.1506 14.7923 10.9848 14.6562 10.8682 14.4817C10.7516 14.3071 10.6893 14.1019 10.6893 13.892C10.6893 13.682 10.7516 13.4768 10.8682 13.3023C10.9848 13.1277 11.1506 12.9917 11.3446 12.9113C11.5385 12.831 11.7519 12.81 11.9578 12.8509C12.1637 12.8919 12.3529 12.993 12.5013 13.1414C12.7004 13.3405 12.8122 13.6105 12.8122 13.892C12.8122 14.1735 12.7004 14.4435 12.5013 14.6425V14.6425Z" fill="#495340"/>
</svg>
