<svg width="80" height="75" viewBox="0 0 80 75" fill="none" xmlns="http://www.w3.org/2000/svg">
<path d="M1.5 58.0651C2.5 60.0651 1.5 62.5651 13.5 67.065C27 71.5651 32 68.8651 34 68.0651C36.5 67.0651 61.5 52.0651 65 49.0651C68.5 46.0651 75 37.065 77 32.0651C79 27.0651 80 22.0651 79 17.0651C78 12.0651 74.5 8.56506 70 5.56506C65.5 2.56506 55.5 0.565032 48.5 0.0650324C41.5 -0.434968 39 2.06503 37 3.56503C35 5.06503 33 10.065 31.5 18.065C30 26.065 25 33.565 22.5 37.065C20 40.565 15.5 41.565 13.5 41.565C11.5 41.565 6.5 41.565 4 42.565C1.5 43.565 0 45.565 0 47.565C0 49.565 0.5 56.0651 1.5 58.0651Z" fill="#FFD9D9"/>
<path d="M21 55.5C23.8 56.7 28.8333 56.6667 31 56.5L33.5 59C35 60.5 38 62.5 41 62.5C43.4 62.5 47.3333 58.5 49 56.5L63.5 41.5C64.6667 40.1667 67.2 37.2 68 36C69 34.5 68 30 67 29C66.2 28.2 63 26.3333 61.5 25.5C61.6667 25.1667 62.2 23.7 63 20.5C64 16.5 59.5 11.5 57 11C55 10.6 50.5 10.8333 48.5 11L48 10.5C46.8333 9.33333 44.2 6.8 43 6C41.5 5 39 5 36.5 6C34.5 6.8 32 9.33333 31 10.5H28C26 10.5 22.5 10.5 19 14C16.2 16.8 16.5 22.1667 17 24.5C16.6667 25 15.5 26.6 13.5 29C11 32 10.5 35 11.5 36.5C12.3 37.7 15.5 41.3333 17 43V46.5C17 49 17.5 54 21 55.5Z" fill="#C1A1FF" stroke="black" stroke-width="2"/>
<circle cx="59.5" cy="51.5" r="11.5" fill="#68F9C5" stroke="black" stroke-width="2"/>
<circle cx="59.5" cy="51.5" r="4.5" fill="white" stroke="black" stroke-width="2"/>
<path d="M56 72.5L55 62C55 62 58 63.5 61 63C64 62.5 67 60 67 60L68 71L62 67.5L56 72.5Z" fill="#FFDA49" stroke="black" stroke-width="2"/>
</svg>
