<svg width="80" height="72" viewBox="0 0 80 72" fill="none" xmlns="http://www.w3.org/2000/svg">
<path d="M4 6L13 11" stroke="#0BAD73" stroke-width="2"/>
<path d="M1.5 60.0651C2.5 62.0651 1.5 64.5651 13.5 69.065C27 73.5651 32 70.8651 34 70.0651C36.5 69.0651 61.5 54.0651 65 51.0651C68.5 48.0651 75 39.065 77 34.0651C79 29.0651 80 24.0651 79 19.0651C78 14.0651 74.5 10.5651 70 7.56506C65.5 4.56506 55.5 2.56503 48.5 2.06503C41.5 1.56503 39 4.06503 37 5.56503C35 7.06503 33 12.065 31.5 20.065C30 28.065 25 35.565 22.5 39.065C20 42.565 15.5 43.565 13.5 43.565C11.5 43.565 6.5 43.565 4 44.565C1.5 45.565 0 47.565 0 49.565C0 51.565 0.5 58.0651 1.5 60.0651Z" fill="#C7F8E6"/>
<path d="M17.5 16.0651L18.5 21.5651L24.5 64.0651L27.5 66.0651L65.5 61.0651L69 57.5651L67 41.5651L61 10.0651L58 8.56506L22 13.0651L17.5 16.0651Z" fill="white"/>
<path d="M20.5 20.5651C20 21.0651 18.5 21.0651 18.5 25.5651V26.0651L24.5 64.5651L28 66.0651C37.3333 64.7317 56.2 61.8651 57 61.0651C58 60.0651 59.5 59.0651 60.5 56.5651C61.5 54.0651 55 21.5651 54.5 19.5651C54 17.5651 50 16.0651 49 16.0651C48 16.0651 21 20.0651 20.5 20.5651Z" fill="#11D18D"/>
<rect x="37" y="10.5651" width="13" height="18" fill="white"/>
<path d="M42 14.5651C40.8 14.1651 38.1667 14.7317 37 15.0651V31.5651L45 26.5651C44.8333 24.2317 44.5 19.1651 44.5 17.5651C44.5 15.5651 43.5 15.0651 42 14.5651Z" fill="#FFDA49"/>
<rect x="16.7026" y="13.8619" width="45.2486" height="53.0572" rx="3.5" transform="rotate(-8.37985 16.7026 13.8619)" stroke="black" stroke-width="3"/>
<path d="M37.5 31.5651L36 11.0651L49.5 9.06506L51 30.0651L43.5 27.0651L37.5 31.5651Z" stroke="black" stroke-width="3"/>
<path d="M29 44.5651L49 41.5651" stroke="black" stroke-width="3"/>
<path d="M31 53.5651L45 51.5651" stroke="black" stroke-width="3"/>
<path d="M16 1L17 9" stroke="#0BAD73" stroke-width="2"/>
<path d="M6 18L12 16" stroke="#0BAD73" stroke-width="2"/>
</svg>
