<svg width="19" height="19" viewBox="0 0 19 19" fill="none" xmlns="http://www.w3.org/2000/svg">
<path d="M8.52997 0.944476C8.66981 0.351841 9.51326 0.351842 9.6531 0.944477L11.1026 7.08731C11.1528 7.30005 11.3189 7.46616 11.5317 7.51636L17.6745 8.96588C18.2671 9.10573 18.2671 9.94917 17.6745 10.089L11.5317 11.5385C11.3189 11.5887 11.1528 11.7548 11.1026 11.9676L9.6531 18.1104C9.51326 18.7031 8.66981 18.7031 8.52997 18.1104L7.08045 11.9676C7.03024 11.7548 6.86414 11.5887 6.65139 11.5385L0.508563 10.089C-0.0840724 9.94917 -0.0840713 9.10573 0.508564 8.96588L6.65139 7.51636C6.86414 7.46616 7.03024 7.30005 7.08045 7.08731L8.52997 0.944476Z" fill="white"/>
</svg>
